<?xml version="1.0" encoding="UTF-8"?>
<svg xmlns="http://www.w3.org/2000/svg" viewBox="0 0 512 512" width="512" height="512"><g id="outline"><circle cx="416" cy="456" r="8"/><circle cx="104" cy="456" r="8"/><path d="M464,278.46V272a32.036,32.036,0,0,0-32-32H352V112a7.97,7.97,0,0,0-.5-2.752c-.006-.019-.006-.038-.013-.057l-24-64A8,8,0,0,0,320,40H48a8,8,0,0,0-7.491,5.191l-24,64c-.006.018,0,.03-.009.048A7.953,7.953,0,0,0,16,112V440a8,8,0,0,0,8,8H64.805a40,40,0,1,0,78.39,0h2.559l6.485,25.94A8,8,0,0,0,160,480H336a8,8,0,0,0,7.761-6.06L348.246,456H376a40,40,0,0,0,80,0h32a8,8,0,0,0,8-8V360a8,8,0,0,0-.572-2.971ZM314.456,56l18,48H309.544l-18-48Zm-40,0,18,48H269.544l-18-48Zm-40,0,18,48H229.544l-18-48Zm-22,48H187.544L200,70.784Zm-24-48-18,48H147.544l18-48Zm-40,0-18,48H107.544l18-48Zm-40,0-18,48H67.544l18-48ZM53.544,56H68.456l-18,48H35.544ZM32,320H80v16H32Zm55.292-95.965a8,8,0,0,0-5.311-5.2c-.15-.045-.3-.087-.469-.13a12,12,0,0,1,7.412-22.824q.218.087.442.167a8,8,0,0,0,10.657-7.752c0-.152-.011-.3-.022-.466a12,12,0,0,1,24,0c-.01.154-.018.308-.022.463a8,8,0,0,0,10.665,7.749c.142-.05.281-.1.435-.164a12,12,0,0,1,7.413,22.824c-.155.04-.31.082-.465.128a8,8,0,0,0-4.05,12.537c.09.117.182.231.286.356a12,12,0,0,1-19.411,14.112c-.088-.139-.178-.277-.272-.413A8,8,0,0,0,112,241.981h-.009a8,8,0,0,0-6.579,3.462c-.087.126-.17.253-.26.395a12,12,0,0,1-19.409-14.112c.1-.121.2-.243.293-.368A8,8,0,0,0,87.292,224.035ZM112,320v80H96V320ZM88,304h-.549a16.907,16.907,0,0,1-15.2-9.4l-3.3-6.6H80.549a16.907,16.907,0,0,1,15.2,9.4l3.3,6.6ZM32,352H80v16H32Zm0,32H80v16H32Zm72,96a24,24,0,1,1,24-24A24.028,24.028,0,0,1,104,480Zm225.754-16H166.246l-4-16H333.754ZM336,432H135.978a39.956,39.956,0,0,0-63.956,0H32V416H336ZM128,368V352h48v16Zm48,16v16H128V384Zm-48-48V320h48v16Zm23.754-41.4a16.907,16.907,0,0,1-15.2,9.4H124.944l3.3-6.6a16.907,16.907,0,0,1,15.2-9.4h11.605ZM192,400V320h16v80Zm39.292-175.965a8,8,0,0,0-5.311-5.2c-.15-.045-.3-.087-.469-.13a12,12,0,0,1,7.412-22.824q.217.087.442.167a8,8,0,0,0,10.657-7.752c0-.152-.011-.3-.022-.466a12,12,0,0,1,24,0c-.01.154-.018.308-.022.463a8,8,0,0,0,10.665,7.749c.142-.05.281-.1.435-.164a12,12,0,0,1,7.413,22.824c-.155.04-.31.082-.465.128a8,8,0,0,0-4.05,12.537c.09.117.182.231.286.356a12,12,0,0,1-19.411,14.112c-.088-.139-.178-.277-.272-.413A8,8,0,0,0,256,241.981h-.009a8,8,0,0,0-6.579,3.462c-.087.126-.17.253-.26.395a12,12,0,0,1-19.409-14.112c.1-.121.2-.243.293-.368A8,8,0,0,0,231.292,224.035ZM272,320v16H224V320Zm23.754-25.4a16.907,16.907,0,0,1-15.205,9.4h-11.6l3.3-6.6a16.907,16.907,0,0,1,15.205-9.4h11.6ZM304,320v80H288V320Zm-80,48V352h48v16Zm48,16v16H224V384Zm-40.549-80a16.907,16.907,0,0,1-15.2-9.4l-3.3-6.6h11.605a16.907,16.907,0,0,1,15.2,9.4l3.3,6.6ZM336,400H320V384h16Zm0-32H320V352h16Zm0-32H320V320h16Zm0-32H308.828c.436-.728.853-1.472,1.237-2.241l9.09-18.181A8,8,0,0,0,312,272H287.451A32.8,32.8,0,0,0,264,281.778V265.326a28.221,28.221,0,0,0,8.492,1.314A28.021,28.021,0,0,0,299.1,230a28.011,28.011,0,0,0-16.473-50.658,28,28,0,0,0-53.262,0A28,28,0,0,0,212.9,229.991,27.993,27.993,0,0,0,248,265.322V281.78A32.8,32.8,0,0,0,224.549,272H200a8,8,0,0,0-7.155,11.578l9.09,18.181c.384.769.8,1.513,1.237,2.241H164.828c.436-.728.853-1.472,1.237-2.241l9.09-18.181A8,8,0,0,0,168,272H143.451A32.8,32.8,0,0,0,120,281.779V265.326a28.234,28.234,0,0,0,8.494,1.314A28.021,28.021,0,0,0,155.1,230a28.011,28.011,0,0,0-16.473-50.658,28,28,0,0,0-53.262,0A28,28,0,0,0,68.9,229.991,27.992,27.992,0,0,0,104,265.322v16.457A32.8,32.8,0,0,0,80.549,272H56a8,8,0,0,0-7.155,11.578l9.09,18.181c.384.769.8,1.513,1.237,2.241H32V152H336Zm0-168H32V120H336Zm16,120h80a16.019,16.019,0,0,1,16,16H352Zm64,224a24.011,24.011,0,0,1-23.417-29.27L403.314,440h25.372l10.733,10.733A24.016,24.016,0,0,1,416,480Zm64-40H451.314l-13.657-13.657A8,8,0,0,0,432,424H400a8,8,0,0,0-5.657,2.343L380.686,440H352V408H480Zm0-48H352V288h98.584L480,361.541Z"/><path d="M440,304H376a8,8,0,0,0-8,8v48a8,8,0,0,0,8,8h80a8,8,0,0,0,7.589-10.53l-16-48A8,8,0,0,0,440,304Zm-56,48V320h50.234L444.9,352Z"/><path d="M256,240a24,24,0,1,0-24-24A24.027,24.027,0,0,0,256,240Zm0-32a8,8,0,1,1-8,8A8.009,8.009,0,0,1,256,208Z"/><path d="M112,240a24,24,0,1,0-24-24A24.027,24.027,0,0,0,112,240Zm0-32a8,8,0,1,1-8,8A8.009,8.009,0,0,1,112,208Z"/></g></svg>
